<?xml version="1.0" encoding="UTF-8"?>
<svg width="61px" height="15px" viewBox="0 0 61 15" version="1.1" xmlns="http://www.w3.org/2000/svg" xmlns:xlink="http://www.w3.org/1999/xlink">
    <!-- Generator: Sketch 53.2 (72643) - https://sketchapp.com -->
    <title>right-arrow (1)</title>
    <desc>Created with Sketch.</desc>
    <g id="Page-1" stroke="none" stroke-width="1" fill="none" fill-rule="evenodd">
        <g id="right-arrow-(1)" fill="#1E201D" fill-rule="nonzero">
            <path d="M53.8293478,0.65673913 C53.5495652,0.367173913 53.083913,0.367173913 52.7943478,0.65673913 C52.5145652,0.936521739 52.5145652,1.40217391 52.7943478,1.68130435 L58.0423913,6.92934783 L0.724565217,6.92934783 C0.320869565,6.93 1.68023807e-15,7.25086957 1.68023807e-15,7.65456522 C1.68023807e-15,8.05826087 0.320869565,8.38956522 0.724565217,8.38956522 L58.0423913,8.38956522 L52.7943478,13.6278261 C52.5145652,13.9173913 52.5145652,14.3836957 52.7943478,14.6628261 C53.083913,14.9523913 53.5502174,14.9523913 53.8293478,14.6628261 L60.3197826,8.1723913 C60.6093478,7.8926087 60.6093478,7.42695652 60.3197826,7.14782609 L53.8293478,0.65673913 Z" id="Path"></path>
        </g>
    </g>
</svg>